<svg xmlns="http://www.w3.org/2000/svg" width="86" height="86" viewBox="0 0 86 86">
  <g id="Alert_popup_icon_-_status_change" data-name="Alert popup icon - status change" transform="translate(-915 -285)">
    <circle id="Ellipse_209" data-name="Ellipse 209" cx="43" cy="43" r="43" transform="translate(915 285)" fill="rgba(28,72,150,0.26)"/>
    <g id="suitcase_3_" data-name="suitcase (3)" transform="translate(929 270.588)">
      <g id="Group_42244" data-name="Group 42244" transform="translate(0 32.088)">
        <path id="Path_24417" data-name="Path 24417" d="M187.755,34.683a11.507,11.507,0,0,0-2.54-1.356,18.7,18.7,0,0,0-13.387,0,11.5,11.5,0,0,0-2.54,1.356,1.922,1.922,0,0,0-.757,1.528v3.015l1.922,1.028,1.922-1.028V37.3a14.491,14.491,0,0,1,12.291,0v1.927l1.922,1.028,1.922-1.028V36.211A1.921,1.921,0,0,0,187.755,34.683Z" transform="translate(-149.283 -32.088)" fill="#e8834d"/>
        <g id="Group_42243" data-name="Group 42243" transform="translate(19.249 7.139)">
          <path id="Path_24418" data-name="Path 24418" d="M168.533,94.589v2.122l1.922,1.028,1.922-1.028V94.589Z" transform="translate(-168.533 -94.589)" fill="#d66e41"/>
          <path id="Path_24419" data-name="Path 24419" d="M313.649,94.589H309.8v2.122l1.922,1.028,1.922-1.028Z" transform="translate(-293.67 -94.589)" fill="#d66e41"/>
        </g>
        <path id="Path_24420" data-name="Path 24420" d="M13.247,298.286V315.36a3.67,3.67,0,0,0,3.67,3.67H65.029a3.67,3.67,0,0,0,3.67-3.67V298.286Z" transform="translate(-11.734 -267.882)" fill="#365e7d"/>
        <path id="Path_24421" data-name="Path 24421" d="M13.247,279.705v2.122c3.049,2.421,11.108,7.121,27.726,7.121s24.677-4.7,27.726-7.121V279.7H13.247Z" transform="translate(-11.734 -251.423)" fill="#2b4d66"/>
        <path id="Path_24422" data-name="Path 24422" d="M1.354,130.968c2.922,2.379,10.97,7.249,27.885,7.249s24.963-4.869,27.885-7.249c.857-.7,1.354-2.77,1.354-3.875V116.839a3.67,3.67,0,0,0-3.67-3.67H3.67A3.67,3.67,0,0,0,0,116.839v10.254c0,1.1.5,3.178,1.354,3.875Z" transform="translate(0 -103.908)" fill="#407093"/>
        <path id="Path_24423" data-name="Path 24423" d="M57.124,237.925c-2.922,2.379-10.97,7.249-27.885,7.249S4.276,240.3,1.354,237.925A3.671,3.671,0,0,1,0,235.078V237.2a3.671,3.671,0,0,0,1.354,2.847c2.922,2.379,10.97,7.249,27.885,7.249s24.963-4.869,27.885-7.249a3.671,3.671,0,0,0,1.354-2.847v-2.122A3.671,3.671,0,0,1,57.124,237.925Z" transform="translate(0 -211.893)" fill="#365e7d"/>
        <path id="Path_24424" data-name="Path 24424" d="M229.335,312.687c1.9,0,3.438-1.41,3.438-4.466v-2.084a1.223,1.223,0,0,0-1.223-1.223H227.12a1.223,1.223,0,0,0-1.223,1.223v2.085C225.9,311.277,227.436,312.687,229.335,312.687Z" transform="translate(-200.096 -273.752)" fill="#ffe27a"/>
        <path id="Path_24425" data-name="Path 24425" d="M229.335,337.312a3.438,3.438,0,0,1-3.438-3.438V336a3.438,3.438,0,0,0,6.876,0v-2.122A3.438,3.438,0,0,1,229.335,337.312Z" transform="translate(-200.096 -299.405)" fill="#f9cf58"/>
      </g>
    </g>
  </g>
</svg>
