<svg xmlns="http://www.w3.org/2000/svg" width="17.373" height="10.356" viewBox="0 0 17.373 10.356">
  <g id="blue_view" data-name="blue view" transform="translate(0 -98.725)">
    <path id="Path_25345" data-name="Path 25345" d="M8.686,98.725c-3.319,0-6.329,1.816-8.55,4.766a.688.688,0,0,0,0,.821c2.221,2.953,5.231,4.769,8.55,4.769s6.329-1.816,8.55-4.766a.688.688,0,0,0,0-.821C15.015,100.541,12.005,98.725,8.686,98.725Zm.238,8.824a3.654,3.654,0,1,1,3.408-3.408A3.656,3.656,0,0,1,8.924,107.549Zm-.11-1.684a1.967,1.967,0,1,1,1.837-1.837A1.964,1.964,0,0,1,8.814,105.864Z" transform="translate(0 0)" fill="#004475"/>
  </g>
</svg>
