<svg xmlns="http://www.w3.org/2000/svg" width="10.975" height="15.322" viewBox="0 0 10.975 15.322">
  <g id="certification_icon" transform="translate(0.031)">
    <path id="Path_24904" data-name="Path 24904" d="M617.967,558c.359.234.713.469,1.073.7a.218.218,0,0,0,.129.007c.366-.043.732-.087,1.1-.136a.168.168,0,0,1,.191.1q.279.469.573.928a.358.358,0,0,0,.166.133c.346.126.7.244,1.045.359a.151.151,0,0,1,.127.154q.051.566.12,1.13a.3.3,0,0,0,.087.16q.39.395.789.778a.155.155,0,0,1,.043.194c-.128.34-.253.682-.369,1.026a.4.4,0,0,0,0,.239q.174.516.369,1.026a.153.153,0,0,1-.043.192q-.4.382-.787.779a.353.353,0,0,0-.091.19c-.046.371-.08.743-.126,1.114a.209.209,0,0,1-.12.136c-.346.127-.7.239-1.043.363a.353.353,0,0,0-.166.132c-.194.3-.382.608-.566.918a.177.177,0,0,1-.21.107c-.355-.053-.711-.093-1.068-.127a.409.409,0,0,0-.234.057c-.311.189-.616.386-.921.586a.147.147,0,0,1-.187,0c-.3-.2-.61-.4-.92-.586a.412.412,0,0,0-.235-.056q-.543.051-1.084.128a.16.16,0,0,1-.188-.1c-.182-.3-.365-.606-.559-.9a.458.458,0,0,0-.208-.17c-.331-.123-.666-.235-1-.342a.182.182,0,0,1-.143-.19c-.032-.367-.072-.734-.118-1.1a.307.307,0,0,0-.088-.16q-.388-.4-.787-.782a.154.154,0,0,1-.044-.193c.13-.345.256-.691.375-1.037a.351.351,0,0,0,0-.212c-.12-.348-.245-.695-.375-1.037a.154.154,0,0,1,.043-.2c.26-.248.519-.5.767-.756a.428.428,0,0,0,.111-.227c.048-.365.086-.733.12-1.1.008-.09.056-.113.127-.137.34-.114.68-.226,1.016-.352a.459.459,0,0,0,.208-.167c.192-.292.374-.589.551-.89a.187.187,0,0,1,.214-.109c.351.047.7.092,1.054.128a.406.406,0,0,0,.235-.047c.324-.2.64-.4.958-.608a.2.2,0,0,0,.037-.043Zm3.84,5.657a3.871,3.871,0,1,0-3.881,3.861,3.877,3.877,0,0,0,3.881-3.861Z" transform="translate(-612.48 -558)" fill="#004475"/>
    <path id="Path_24905" data-name="Path 24905" d="M622.381,820.221c-.554-.447-1.106-.9-1.665-1.337a.34.34,0,0,0-.212-.029c-.612.032-1.224.069-1.835.1-.054,0-.109,0-.188,0l1.215-3.8a.491.491,0,0,1,.391.247c.209.368.443.722.661,1.085a.16.16,0,0,0,.189.093q.659-.091,1.321-.159a.433.433,0,0,1,.249.057c.265.158.519.333.784.493a.152.152,0,0,1,.08.214c-.312.956-.617,1.915-.923,2.873a1.534,1.534,0,0,0-.034.16Z" transform="translate(-618.27 -804.9)" fill="#004475"/>
    <path id="Path_24906" data-name="Path 24906" d="M759.584,820.2c-.115-.375-.227-.751-.345-1.125q-.3-.954-.612-1.9a.15.15,0,0,1,.08-.213q.384-.232.756-.482a.423.423,0,0,1,.308-.073c.43.056.861.1,1.29.163a.162.162,0,0,0,.189-.093c.219-.362.452-.718.661-1.084a.51.51,0,0,1,.391-.249l1.217,3.8c-.275-.014-.531-.026-.787-.04-.433-.024-.866-.051-1.3-.073a.248.248,0,0,0-.153.032c-.559.443-1.111.891-1.665,1.338Z" transform="translate(-752.81 -804.88)" fill="#004475"/>
    <path id="Path_24907" data-name="Path 24907" d="M681.454,627.978a2.97,2.97,0,1,1-.869-2.107A2.972,2.972,0,0,1,681.454,627.978Z" transform="translate(-673.025 -622.327)" fill="#004475"/>
  </g>
</svg>
