<svg xmlns="http://www.w3.org/2000/svg" width="12.708" height="12.613" viewBox="0 0 12.708 12.613">
  <g id="company_name_icon" transform="translate(0 0.005)">
    <path id="Path_24889" data-name="Path 24889" d="M558,573.057V561.639a.61.61,0,0,0,.027-.066.922.922,0,0,1,1.042-.7c.508.069,1.013.152,1.52.229l3.026.461c.433.066.866.13,1.3.2a.95.95,0,0,1,.766.983q-.011,5.3,0,10.608c0,.041,0,.083-.006.123h-2.234c0-.049-.006-.1-.006-.148v-2.555a.927.927,0,0,0-1-1h-1.191a.919.919,0,0,0-.991.989v2.6c0,.037,0,.074.006.111h-1.837A.628.628,0,0,1,558,573.057Zm2.523-10.033h0c-.14,0-.281,0-.421,0a.391.391,0,0,0-.381.37.378.378,0,0,0,.334.41,7.489,7.489,0,0,0,.916,0,.371.371,0,0,0,.335-.418.387.387,0,0,0-.385-.362C560.788,563.021,560.655,563.024,560.523,563.024Zm0,1.588c-.14,0-.281,0-.421,0a.39.39,0,0,0-.377.374.376.376,0,0,0,.326.4,7.36,7.36,0,0,0,.94,0,.366.366,0,0,0,.318-.418.386.386,0,0,0-.377-.357c-.136-.005-.273,0-.409,0Zm0,1.589c-.14,0-.281,0-.421,0a.39.39,0,0,0-.377.374.375.375,0,0,0,.326.4,7.315,7.315,0,0,0,.94,0,.366.366,0,0,0,.318-.418.386.386,0,0,0-.377-.357c-.136-.005-.273,0-.409,0Zm0,1.589c-.14,0-.281,0-.421,0a.391.391,0,0,0-.377.374.375.375,0,0,0,.326.4,7.36,7.36,0,0,0,.94,0,.366.366,0,0,0,.318-.418.386.386,0,0,0-.376-.357c-.137-.005-.273,0-.41,0Zm2.647-4.765c-.136,0-.273,0-.409,0a.391.391,0,0,0-.389.363.372.372,0,0,0,.326.414,7.272,7.272,0,0,0,.94,0,.372.372,0,0,0,.32-.407.393.393,0,0,0-.381-.368c-.135-.005-.272,0-.408,0Zm0,1.588h-.422a.4.4,0,0,0-.379.361.373.373,0,0,0,.324.416,7.271,7.271,0,0,0,.94,0,.372.372,0,0,0,.322-.417.393.393,0,0,0-.379-.358c-.135-.005-.271,0-.408,0Zm0,1.589c-.136,0-.273,0-.409,0a.392.392,0,0,0-.394.371.38.38,0,0,0,.346.412,7.868,7.868,0,0,0,.891,0,.381.381,0,0,0,.35-.409.4.4,0,0,0-.389-.374c-.132,0-.264,0-.4,0Zm0,1.589h-.422a.4.4,0,0,0-.378.361.373.373,0,0,0,.325.416,7.366,7.366,0,0,0,.94,0,.372.372,0,0,0,.321-.406.393.393,0,0,0-.38-.37c-.135,0-.271,0-.408,0Z" transform="translate(-558 -560.87)" fill="#004475"/>
    <path id="Path_24890" data-name="Path 24890" d="M806.076,715.405c0-.049-.006-.1-.006-.148V707.65l.655.136c1.014.213,2.028.428,3.043.638a.927.927,0,0,1,.784.744.139.139,0,0,0,.017.033v5.41a3.351,3.351,0,0,1-.2.43.929.929,0,0,1-.6.364Zm2.121-5.56c-.132,0-.265,0-.4,0a.4.4,0,1,0,0,.794q.391.005.782,0a.4.4,0,1,0-.007-.794Zm-.017,2.383h.384a.4.4,0,1,0,0-.793q-.384,0-.769,0a.4.4,0,1,0,0,.793C807.924,712.23,808.053,712.228,808.181,712.228Zm0,1.589c.136,0,.273,0,.409,0a.4.4,0,0,0,0-.794q-.4-.007-.806,0a.393.393,0,0,0-.391.4.4.4,0,0,0,.4.4c.132,0,.265,0,.4,0Z" transform="translate(-797.861 -702.797)" fill="#004475"/>
  </g>
</svg>
