<svg id="contact_number" xmlns="http://www.w3.org/2000/svg" width="11.762" height="11.787" viewBox="0 0 11.762 11.787">
  <g id="Group_1" data-name="Group 1" transform="translate(0 0)">
    <path id="Path_2" data-name="Path 2" d="M11.993,8.65,10.348,7.006a1.094,1.094,0,0,0-1.821.411,1.119,1.119,0,0,1-1.292.7A5.072,5.072,0,0,1,4.18,5.067a1.065,1.065,0,0,1,.7-1.292A1.094,1.094,0,0,0,5.3,1.953L3.651.308a1.173,1.173,0,0,0-1.586,0L.949,1.425C-.168,2.6,1.066,5.713,3.827,8.474s5.875,4.054,7.05,2.879l1.116-1.116A1.173,1.173,0,0,0,11.993,8.65Z" transform="translate(-0.539 0)" fill="#004475"/>
  </g>
</svg>
