<svg xmlns="http://www.w3.org/2000/svg" width="18.512" height="19.291" viewBox="0 0 18.512 19.291">
  <g id="create_job_alert" data-name="create job alert" transform="translate(0.002 0.031)">
    <path id="Path_25306" data-name="Path 25306" d="M707.129,887.825a.756.756,0,0,1-.563-.657.453.453,0,0,0-.325-.416.756.756,0,0,1-.509-.707,5.633,5.633,0,0,1-.007-.677.516.516,0,0,1,.533-.52q1.657-.008,3.314,0a.524.524,0,0,1,.541.534c.008.213.007.427,0,.64a.849.849,0,0,1-.608.778.228.228,0,0,0-.184.2c-.013.068-.037.133-.05.2a.75.75,0,0,1-.554.623Z" transform="translate(-698.665 -868.565)" fill="#fff"/>
    <path id="Path_25307" data-name="Path 25307" d="M659.085,658.65h-1.375a.8.8,0,0,1-.876-.726,4.386,4.386,0,0,0-1.121-2.259,4.989,4.989,0,0,1-1.261-2.336,4.749,4.749,0,1,1,8.219,2.106,4.885,4.885,0,0,0-1.247,2.177c-.024.1-.046.208-.066.313a.8.8,0,0,1-.878.727C660.014,658.652,659.55,658.65,659.085,658.65Zm-3.418-6.453v.113a.53.53,0,0,0,.5.554.52.52,0,0,0,.563-.485c.008-.068.013-.137.019-.206a2.3,2.3,0,0,1,1.13-1.852,2.583,2.583,0,0,1,1.253-.351.509.509,0,0,0,.493-.573.538.538,0,0,0-.564-.492A3.448,3.448,0,0,0,655.667,652.2Z" transform="translate(-649.841 -643.09)" fill="#fff"/>
    <path id="Path_25308" data-name="Path 25308" d="M565.289,733.182c-.295,0-.589,0-.884,0a.546.546,0,0,1-.587-.531.536.536,0,0,1,.576-.54q.895-.011,1.787,0a.537.537,0,1,1-.007,1.07C565.879,733.184,565.584,733.182,565.289,733.182Z" transform="translate(-563.82 -723.418)" fill="#fff"/>
    <path id="Path_25309" data-name="Path 25309" d="M878.4,733.182c-.295,0-.59,0-.884,0a.542.542,0,0,1-.588-.527.533.533,0,0,1,.57-.543q.9-.011,1.805,0a.539.539,0,0,1,.571.544.551.551,0,0,1-.591.526C878.988,733.184,878.694,733.182,878.4,733.182Z" transform="translate(-861.363 -723.418)" fill="#fff"/>
    <path id="Path_25310" data-name="Path 25310" d="M616.962,829.47a.561.561,0,0,1,.561.327.506.506,0,0,1-.111.589c-.266.275-.539.542-.81.813-.168.169-.334.34-.507.5a.534.534,0,0,1-.76.015.523.523,0,0,1,0-.759q.656-.674,1.332-1.328A1.055,1.055,0,0,1,616.962,829.47Z" transform="translate(-612.62 -815.943)" fill="#fff"/>
    <path id="Path_25311" data-name="Path 25311" d="M838.27,608.14a.548.548,0,0,1,.527.3.462.462,0,0,1-.056.562q-.69.72-1.409,1.412a.529.529,0,0,1-.722-.774c.442-.455.895-.9,1.342-1.346a.2.2,0,0,1,.059-.047C838.113,608.2,838.216,608.161,838.27,608.14Z" transform="translate(-822.902 -605.616)" fill="#fff"/>
    <path id="Path_25312" data-name="Path 25312" d="M838.3,831.962a1.509,1.509,0,0,1-.352-.192c-.447-.431-.885-.871-1.319-1.315a.52.52,0,0,1-.015-.758.53.53,0,0,1,.773.007q.658.646,1.3,1.305a.516.516,0,0,1,.12.6A.622.622,0,0,1,838.3,831.962Z" transform="translate(-822.903 -816.003)" fill="#fff"/>
    <path id="Path_25313" data-name="Path 25313" d="M616.939,610.487a1.689,1.689,0,0,1-.362-.207c-.439-.421-.867-.853-1.3-1.287a.534.534,0,1,1,.747-.762q.659.646,1.3,1.3a.509.509,0,0,1,.119.6A.6.6,0,0,1,616.939,610.487Z" transform="translate(-612.552 -605.539)" fill="#fff"/>
    <path id="Path_25314" data-name="Path 25314" d="M740.351,558.221c0,.307,0,.614,0,.922a.531.531,0,1,1-1.062,0q-.007-.922,0-1.843a.532.532,0,1,1,1.063-.007C740.356,557.609,740.351,557.913,740.351,558.221Z" transform="translate(-730.564 -556.78)" fill="#fff"/>
  </g>
</svg>
