<svg xmlns="http://www.w3.org/2000/svg" width="57.117" height="56.69" viewBox="0 0 57.117 56.69">
  <g id="default_comapny_icon" transform="translate(0 0.005)">
    <path id="Path_24889" data-name="Path 24889" d="M558,615.659V564.344a2.736,2.736,0,0,0,.121-.3,4.146,4.146,0,0,1,4.682-3.136c2.282.311,4.554.682,6.83,1.029l13.6,2.071c1.946.3,3.893.584,5.837.892a4.269,4.269,0,0,1,3.445,4.417q-.049,23.84-.018,47.677c0,.185-.018.371-.027.555H582.43c-.008-.221-.027-.446-.027-.666V605.4a4.164,4.164,0,0,0-4.473-4.5h-5.355a4.131,4.131,0,0,0-4.455,4.445v11.7c0,.166.018.332.027.5h-8.255A2.825,2.825,0,0,1,558,615.659Zm11.34-45.094h0c-.631,0-1.263-.02-1.893,0a1.758,1.758,0,0,0-1.712,1.662,1.7,1.7,0,0,0,1.5,1.841,33.74,33.74,0,0,0,4.115,0,1.668,1.668,0,0,0,1.5-1.878,1.74,1.74,0,0,0-1.732-1.628C570.53,570.554,569.935,570.566,569.34,570.566Zm-.018,7.139c-.631,0-1.263-.021-1.894,0a1.754,1.754,0,0,0-1.694,1.681A1.689,1.689,0,0,0,567.2,581.2a33.04,33.04,0,0,0,4.224,0,1.647,1.647,0,0,0,1.431-1.879,1.734,1.734,0,0,0-1.693-1.606c-.613-.023-1.227-.009-1.84-.008Zm0,7.14c-.631,0-1.263-.021-1.894,0a1.754,1.754,0,0,0-1.694,1.681,1.687,1.687,0,0,0,1.465,1.814,32.84,32.84,0,0,0,4.224,0,1.647,1.647,0,0,0,1.431-1.878,1.734,1.734,0,0,0-1.693-1.606c-.613-.022-1.227-.009-1.84-.008Zm0,7.14c-.631,0-1.263-.021-1.894,0a1.756,1.756,0,0,0-1.694,1.68,1.688,1.688,0,0,0,1.465,1.815,33.04,33.04,0,0,0,4.224,0,1.646,1.646,0,0,0,1.431-1.878,1.735,1.735,0,0,0-1.691-1.607c-.615-.022-1.228-.009-1.842-.008Zm11.9-21.418c-.612,0-1.226-.016-1.838,0a1.758,1.758,0,0,0-1.749,1.633,1.674,1.674,0,0,0,1.465,1.862,32.757,32.757,0,0,0,4.224,0,1.671,1.671,0,0,0,1.44-1.828,1.768,1.768,0,0,0-1.713-1.655c-.607-.024-1.221-.011-1.834-.012Zm.01,7.139h-1.9a1.773,1.773,0,0,0-1.7,1.624,1.676,1.676,0,0,0,1.457,1.872,32.669,32.669,0,0,0,4.224,0,1.674,1.674,0,0,0,1.446-1.876,1.767,1.767,0,0,0-1.7-1.609c-.605-.023-1.22-.009-1.833-.009Zm.013,7.14c-.613,0-1.227-.015-1.84,0a1.764,1.764,0,0,0-1.772,1.666,1.71,1.71,0,0,0,1.555,1.853,35.354,35.354,0,0,0,4.007,0,1.711,1.711,0,0,0,1.572-1.839,1.775,1.775,0,0,0-1.748-1.681c-.592-.012-1.187,0-1.78,0Zm-.018,7.14h-1.9a1.775,1.775,0,0,0-1.7,1.624,1.678,1.678,0,0,0,1.46,1.868,33.066,33.066,0,0,0,4.226,0,1.671,1.671,0,0,0,1.444-1.823,1.767,1.767,0,0,0-1.709-1.662c-.605-.019-1.219-.006-1.833-.006Z" transform="translate(-558 -560.87)" fill="#c8c8c8"/>
    <path id="Path_24890" data-name="Path 24890" d="M806.1,742.507c-.009-.222-.027-.446-.027-.666V707.65c1.031.212,1.987.409,2.943.61,4.559.956,9.115,1.922,13.677,2.866a4.166,4.166,0,0,1,3.522,3.345.627.627,0,0,0,.078.149v24.318a15.053,15.053,0,0,1-.892,1.934,4.176,4.176,0,0,1-2.677,1.636Zm9.534-24.988c-.6,0-1.19-.009-1.785,0a1.785,1.785,0,1,0-.022,3.57q1.756.023,3.513,0a1.785,1.785,0,1,0-.029-3.568Zm-.074,10.709h1.728a1.784,1.784,0,1,0,.015-3.566q-1.727-.018-3.457,0a1.782,1.782,0,1,0-.015,3.564C814.4,728.237,814.984,728.228,815.557,728.228Zm.017,7.14c.613,0,1.227.019,1.84,0a1.785,1.785,0,0,0-.021-3.57q-1.812-.032-3.624,0a1.767,1.767,0,0,0-1.76,1.785,1.785,1.785,0,0,0,1.783,1.785c.595.012,1.19,0,1.785,0Z" transform="translate(-769.172 -685.822)" fill="#c8c8c8"/>
  </g>
</svg>
