<svg xmlns="http://www.w3.org/2000/svg" width="12.689" height="12.691" viewBox="0 0 12.689 12.691">
  <g id="designation_icon" transform="translate(0.002)">
    <path id="Path_24865" data-name="Path 24865" d="M567.789,699.99h-9.267a.579.579,0,0,1-.522-.522v-7.707a.3.3,0,0,1,.214-.04h8.366a.413.413,0,0,1,.241.033.24.24,0,0,1,.04.175q0,.679,0,1.357a.225.225,0,0,1-.056.194.416.416,0,0,1-.218.029h-2.524c-.188,0-.224.039-.225.226s0,.4,0,.595.03.214.219.215q1.237,0,2.474,0c.053,0,.107,0,.161,0a.166.166,0,0,1,.143.059.316.316,0,0,1,.025.157v1.052a.265.265,0,0,1-.029.156.3.3,0,0,1-.213.039H564a.619.619,0,0,0-.22.021.159.159,0,0,0-.121.157c0,.08.066.118.14.132a.979.979,0,0,0,.2.01h2.623a.346.346,0,0,1,.216.033.232.232,0,0,1,.033.142c0,.144,0,.288,0,.433s-.029.18-.182.182c-.284,0-.569,0-.853,0-.668,0-1.335-.006-2,0l-.023.007c-.084.023-.16.061-.162.159s.07.15.16.175c.438.011.875,0,1.313,0,.516,0,1.032,0,1.548,0,.177,0,.2.022.2.2,0,.132,0,.264,0,.4a.272.272,0,0,1-.028.156.3.3,0,0,1-.214.039q-1.313,0-2.626,0a.644.644,0,0,0-.209.019.159.159,0,0,0-.13.16c0,.086.073.114.144.13a.846.846,0,0,0,.185.01h2.6a.715.715,0,0,1,.209.014c.066.03.057.093.06.148a1.7,1.7,0,0,0,.017.355,1.088,1.088,0,0,0,.8.82C567.716,699.936,567.778,699.919,567.789,699.99Z" transform="translate(-558.002 -687.299)" fill="#004475"/>
    <path id="Path_24866" data-name="Path 24866" d="M566.824,562.462H558V558.5a.56.56,0,0,1,.521-.5h7.808a.626.626,0,0,1,.523.576,1.189,1.189,0,0,1,.011.185v3.5a.386.386,0,0,1-.022.182Z" transform="translate(-558.002 -558)" fill="#004475"/>
    <path id="Path_24868" data-name="Path 24868" d="M873.314,759.8c.527,0,1.053,0,1.58,0a.634.634,0,0,1,.628.477.211.211,0,0,0,.023.042V764.9a1.073,1.073,0,0,1-.578.813,1.179,1.179,0,0,1-.364.1h-.373a1.073,1.073,0,0,1-.895-.771,1.176,1.176,0,0,1-.06-.39v-4.682A.233.233,0,0,1,873.314,759.8Z" transform="translate(-862.858 -753.125)" fill="#146097"/>
    <path id="Path_24869" data-name="Path 24869" d="M736.669,694.163V699a1.113,1.113,0,0,0,.818,1.132c.033.012.074.012.1.045H736a1.138,1.138,0,0,0-.244-.069,1.115,1.115,0,0,1-.723-1.094,1.628,1.628,0,0,0,0-.2c.041-.047.1-.038.15-.039.132,0,.264,0,.4,0s.208-.066.206-.163-.076-.149-.2-.157-.264,0-.4,0a.2.2,0,0,1-.152-.033c0-.19-.007-.38,0-.569.006-.117-.027-.154-.148-.153-.928.005-1.856,0-2.784,0-.048,0-.1.016-.143-.019.059-.063.138-.044.21-.045q1.658,0,3.315,0a1.035,1.035,0,0,0,.173-.007.126.126,0,0,0,.119-.121.132.132,0,0,0-.095-.143.532.532,0,0,0-.208-.02H732.2c-.072,0-.15.019-.211-.043.043-.036.095-.02.143-.02.923,0,1.845,0,2.768,0,.108,0,.145-.026.139-.137-.009-.193,0-.387,0-.581.041-.047.1-.037.149-.038.128,0,.255,0,.382,0a.26.26,0,0,0,.143-.03.146.146,0,0,0,.074-.145.143.143,0,0,0-.118-.126,1.922,1.922,0,0,0-.43-.023c-.068,0-.141.017-.2-.035v-1.363c.042-.045.1-.031.151-.035a1.083,1.083,0,0,0,.305-.019.175.175,0,0,0,.124-.18c.006-.231.008-.461,0-.691,0-.124-.063-.171-.191-.178a2.539,2.539,0,0,1-.382-.013.07.07,0,0,1-.033-.027.214.214,0,0,0,.025-.142v-1.563h0a.224.224,0,0,1,.164-.04H736.5a.224.224,0,0,1,.164.039Z" transform="translate(-726.213 -687.492)" fill="#004475"/>
    <path id="Path_24870" data-name="Path 24870" d="M812.129,562.462H810.5c0-1.212-.007-2.423,0-3.635A.765.765,0,0,0,810,558h1.635a.779.779,0,0,1,.4.288.628.628,0,0,1,.1.326Q812.13,560.539,812.129,562.462Z" transform="translate(-801.674 -558)" fill="#004475"/>
    <path id="Path_24874" data-name="Path 24874" d="M591.255,745.879h-1.584c-.182,0-.22-.038-.221-.215v-.705c0-.144.05-.2.191-.2h3.242c.136,0,.189.055.189.186q0,.372,0,.743c0,.143-.048.189-.2.189Q592.066,745.88,591.255,745.879Z" transform="translate(-588.413 -738.588)" fill="#fff"/>
    <path id="Path_24875" data-name="Path 24875" d="M736.449,744.64l.026.006a.243.243,0,0,1,.038.176v.715c0,.182,0,.179.188.184.084,0,.174-.025.248.041a2.428,2.428,0,0,1-.475.023.283.283,0,0,0-.157-.022h-2.638c-.2,0-.228-.033-.229-.231V744.9c0-.214.039-.254.25-.254h2.6C736.35,744.644,736.4,744.641,736.449,744.64Z" transform="translate(-727.654 -738.472)" fill="#fff"/>
    <path id="Path_24876" data-name="Path 24876" d="M585.528,889.275h-1.733a.364.364,0,0,1-.147-.015.181.181,0,0,1-.124-.181.179.179,0,0,1,.129-.177.439.439,0,0,1,.159-.015h3.429a.743.743,0,0,1,.123.005.183.183,0,0,1,.172.192.19.19,0,0,1-.19.189c-.033,0-.066,0-.1,0Z" transform="translate(-582.682 -877.951)" fill="#fff"/>
    <path id="Path_24877" data-name="Path 24877" d="M585.453,821.078h-1.746a.252.252,0,0,1-.195-.06.186.186,0,0,1,.073-.311.552.552,0,0,1,.159-.017h3.516c.132.01.213.083.213.194s-.084.192-.225.192Q586.35,821.079,585.453,821.078Z" transform="translate(-582.617 -812.008)" fill="#fff"/>
    <path id="Path_24878" data-name="Path 24878" d="M730.809,820.52c.189,0,.378,0,.567.006a.207.207,0,0,1,.219.128.192.192,0,0,1-.194.258c-.2.005-.395,0-.592.006l-1.781,0H727.8a.194.194,0,0,1-.214-.192.2.2,0,0,1,.2-.193.96.96,0,0,1,.1,0h2.783C730.718,820.526,730.763,820.522,730.809,820.52Z" transform="translate(-721.987 -811.844)" fill="#fff"/>
    <path id="Path_24879" data-name="Path 24879" d="M730.809,888.75c.185,0,.37,0,.555.006.16,0,.245.074.241.2s-.087.185-.241.187l-.555.005-1.731,0h-1.249c-.149,0-.239-.076-.239-.193s.091-.19.239-.194h1.546Z" transform="translate(-721.987 -877.819)" fill="#fff"/>
    <path id="Path_24880" data-name="Path 24880" d="M727.765,854.86l3.032,0h.582c.147,0,.227.066.231.183s-.076.194-.231.194H727.74a.194.194,0,0,1,.025-.381Z" transform="translate(-721.992 -845.049)" fill="#fff"/>
    <path id="Path_24881" data-name="Path 24881" d="M585.566,854.935h1.757a.209.209,0,0,1,.222.12.184.184,0,0,1-.176.257c-.194.005-.388,0-.582,0h-2.958a.853.853,0,0,1-.124,0,.173.173,0,0,1-.161-.174.178.178,0,0,1,.151-.2.461.461,0,0,1,.111,0Z" transform="translate(-582.704 -845.119)" fill="#fff"/>
    <path id="Path_24882" data-name="Path 24882" d="M767.287,588.477v-1c0-.182.066-.245.245-.246h.569a.677.677,0,0,1,.591,1.017.105.105,0,0,0,.024.161.761.761,0,0,1-.527,1.332q-.34,0-.68,0a.193.193,0,0,1-.221-.22C767.286,589.171,767.287,588.825,767.287,588.477Z" transform="translate(-760.372 -586.263)" fill="#fff"/>
    <path id="Path_24883" data-name="Path 24883" d="M670.524,589.768a1.254,1.254,0,1,1,1.254-1.254,1.246,1.246,0,0,1-1.254,1.254Z" transform="translate(-665.593 -586.293)" fill="#fff"/>
    <path id="Path_24884" data-name="Path 24884" d="M607.748,588.313c0,.272,0,.545,0,.818a.6.6,0,0,1-.379.572.67.67,0,0,1-.687-.157.208.208,0,0,1-.013-.274.2.2,0,0,1,.258-.021c.017.012.033.026.049.038a.237.237,0,0,0,.275.043.25.25,0,0,0,.121-.241v-1.636c0-.144.07-.225.189-.225s.186.08.187.226v.855Z" transform="translate(-605.018 -586.264)" fill="#fff"/>
    <path id="Path_24885" data-name="Path 24885" d="M825.375,745.908c-.119,0-.238-.008-.357,0-.09,0-.122-.023-.12-.117.005-.33,0-.665,0-1,.14,0,.28,0,.42,0a.176.176,0,0,1,.2.189c0,.247,0,.494,0,.741A.165.165,0,0,1,825.375,745.908Z" transform="translate(-816.08 -738.618)" fill="#fff"/>
    <path id="Path_24886" data-name="Path 24886" d="M779.088,628.854c0-.091,0-.181,0-.272s.016-.12.107-.115c.135.007.272,0,.408,0a.382.382,0,1,1,.04.764c-.16.011-.321,0-.481,0-.054,0-.073-.023-.072-.074C779.089,629.06,779.088,628.957,779.088,628.854Z" transform="translate(-771.782 -626.138)" fill="#004475"/>
    <path id="Path_24887" data-name="Path 24887" d="M779.071,598.9c0-.287,0-.287.292-.287a.662.662,0,0,1,.22.02.3.3,0,0,1,.209.326.287.287,0,0,1-.28.25c-.115,0-.231,0-.346,0-.079,0-.1-.03-.1-.1S779.071,598.975,779.071,598.9Z" transform="translate(-771.766 -597.275)" fill="#004475"/>
    <path id="Path_24888" data-name="Path 24888" d="M682.684,599.532a.871.871,0,1,1-.253-.625A.871.871,0,0,1,682.684,599.532Z" transform="translate(-676.881 -597.306)" fill="#004475"/>
  </g>
</svg>
