<svg xmlns="http://www.w3.org/2000/svg" width="29.581" height="33.01" viewBox="0 0 29.581 33.01">
  <g id="word_icon" transform="translate(-6.903 -0.024)">
    <path id="Path_25323" data-name="Path 25323" d="M594.848,591.135H577.894a.734.734,0,0,1-.1-.524V566.585c0-.154-.049-.332.143-.426,1.426-.027,2.854-.006,4.282-.011H585.4c.511,0,.516,0,.516-.525v-7.085c0-.1,0-.193.007-.29a.2.2,0,0,1,.034-.119h8.889a.6.6,0,0,1,.1.43V564.9c0,.49-.064.547-.565.548h-4.5c-.457,0-.486.031-.487.5v.933c0,.119-.006.238.1.322a.946.946,0,0,0,.442.051h4.389a.859.859,0,0,1,.53.086.587.587,0,0,1,.092.4v4.221a.794.794,0,0,1-.046.316.225.225,0,0,1-.086.094,1.433,1.433,0,0,1-.6.057H582.971c-.437.005-.457.021-.457.454v11.951c0,.456.011.467.471.467h11.245a1.27,1.27,0,0,1,.6.066.257.257,0,0,1,.08.1,1.283,1.283,0,0,1,.042.446v4.7A.768.768,0,0,1,594.848,591.135Z" transform="translate(-570.882 -558.1)" fill="#e9f1f8"/>
    <path id="Path_25324" data-name="Path 25324" d="M724.947,558.07v14.176a.515.515,0,0,1-.422.109q-3.448.005-6.9,0a.517.517,0,0,1-.423-.108V567.3c.117-.131.275-.1.42-.1h2.426c.125,0,.258.026.353-.095a6.116,6.116,0,0,0,.04-1.434c0-.214-.18-.208-.329-.21-.524-.006-1.047,0-1.57,0-.449,0-.9.008-1.346-.006-1.489.018-2.978,0-4.466.008h-.516c-.353.009-.382.037-.387.391s0,.688,0,1.032a.576.576,0,0,1-.086.4c-.075-.028-.086-.091-.086-.157,0-.536.006-1.074,0-1.611,0-.266.172-.22.329-.22,1.612,0,3.223-.009,4.835.007.31,0,.394-.086.392-.392-.013-2.278-.007-4.557-.007-6.834Z" transform="translate(-693.245 -558.046)" fill="#c5dbf7"/>
    <path id="Path_25326" data-name="Path 25326" d="M788.7,723.06c.117.075.07.193.07.293q0,6.261.008,12.524c0,.273-.086.344-.344.339-1.363-.011-2.726,0-4.088-.01-.253,0-.355.047-.353.33.014,1.781.009,3.563.01,5.344H776.26q0-2.837.007-5.683a.755.755,0,0,1,.526-.093c2.115,0,4.231.038,6.344-.014,1.664-.041,3.326-.042,4.987-.052.453,0,.469-.017.469-.473V723.649A.861.861,0,0,1,788.7,723.06Z" transform="translate(-752.292 -708.85)" fill="#c5dbf7"/>
    <path id="Path_25327" data-name="Path 25327" d="M787.5,723c0,.107.013.214.013.321q0,6.185.008,12.369c0,.33-.086.408-.41.408-2.887,0-5.774.027-8.66.04-1.127.005-2.254,0-3.382,0a.394.394,0,0,1-.011-.046.353.353,0,0,1-.086-.2,14.916,14.916,0,0,1,.027-2c.1-.18.282-.188.446-.2a2.782,2.782,0,0,0,2.493-2.891c-.024-.814,0-1.628,0-2.444a2.753,2.753,0,0,0-2.567-2.886.593.593,0,0,1-.243-.064.377.377,0,0,1-.156-.335c-.014-.6-.013-1.2,0-1.8a.357.357,0,0,1,.1-.263l-.007-.014H782.8Z" transform="translate(-751.096 -708.786)" fill="#52baee"/>
    <path id="Path_25328" data-name="Path 25328" d="M643.853,733.815v2.265c-4.015,0-8.03,0-12.044.008-.327,0-.41-.081-.409-.408q.018-6.15,0-12.3c0-.3.064-.4.384-.4q6.038.019,12.077.014c0,.678,0,1.357-.006,2.035,0,.133,0,.258.132.33a.19.19,0,0,1-.132.086,2.814,2.814,0,0,0-1.853.632,2.7,2.7,0,0,0-1.02,2.072c-.029.934-.02,1.869,0,2.8a2.751,2.751,0,0,0,2.548,2.715.82.82,0,0,1,.159.025A.258.258,0,0,1,643.853,733.815Z" transform="translate(-619.887 -708.777)" fill="#69ccfe"/>
    <path id="Path_25329" data-name="Path 25329" d="M579.77,566.758c.057-.065.109-.132.172-.193q3.816-3.818,7.633-7.633c.06-.06.129-.113.193-.172.106.095.063.221.064.334q0,3.687.008,7.375c0,.285-.076.361-.359.359-2.458-.011-4.917-.006-7.375-.008C579.99,566.822,579.864,566.863,579.77,566.758Z" transform="translate(-572.696 -558.676)" fill="#c5dbf7"/>
    <path id="Path_25330" data-name="Path 25330" d="M721.2,644.558c-.082.135-.214.064-.319.065-1.009.009-2.018.007-3.026.009-.707-.007-1.413-.018-2.119-.02h-3.343c-.058-.578-.007-1.157-.028-1.735-.007-.194.107-.2.246-.2h1.77l3.474.005a.651.651,0,0,1,.1.46v.934c.005.344.032.371.367.373.8.005,1.61,0,2.415,0A.657.657,0,0,1,721.2,644.558Z" transform="translate(-693.888 -635.381)" fill="#445e9f"/>
    <path id="Path_25331" data-name="Path 25331" d="M779.536,644.338c-1.021,0-2.041,0-3.062.009-.232,0-.292-.08-.287-.3.013-.526,0-1.053,0-1.579,1.058-.058,2.119-.008,3.181-.028.177,0,.18.1.178.226C779.541,643.225,779.539,643.782,779.536,644.338Z" transform="translate(-752.225 -635.161)" fill="#224070"/>
    <path id="Path_25332" data-name="Path 25332" d="M831.364,754.844v1.29a.951.951,0,0,0,.715.915c.653.1,1.118-.1,1.269-.6a.354.354,0,0,1,.426-.3c.451.02.9.013,1.353,0,.2,0,.238.077.217.258a2.969,2.969,0,0,1-5.92-.4c.025-.848,0-1.7.005-2.546a2.888,2.888,0,0,1,2.863-2.869,2.926,2.926,0,0,1,3.044,2.555c.024.2.012.3-.229.3-.482-.014-.966-.014-1.45,0-.18.005-.234-.079-.284-.226a1,1,0,0,0-1.252-.676.957.957,0,0,0-.759,1.013Q831.365,754.2,831.364,754.844Z" transform="translate(-800.884 -734.01)" fill="#c5dbf7"/>
    <path id="Path_25333" data-name="Path 25333" d="M773.34,750.646l.133-.016a2.868,2.868,0,0,1,2.837,3.009c-.025.86,0,1.72-.005,2.574a2.831,2.831,0,0,1-2.554,2.813c-.138.015-.275.039-.413.059l-.137-.057a13.266,13.266,0,0,0,.045-1.5c.008-.181-.134-.283-.177-.43a.312.312,0,0,1,.251-.095c.595-.032.832-.223.918-.814a16.59,16.59,0,0,0,.04-2.016,4.28,4.28,0,0,0-.034-.7.859.859,0,0,0-.719-.794.53.53,0,0,1-.181-.065.24.24,0,0,1-.069-.094,11.317,11.317,0,0,1-.027-1.665A.3.3,0,0,1,773.34,750.646Z" transform="translate(-749.376 -734.049)" fill="#c5dbf7"/>
    <path id="Path_25334" data-name="Path 25334" d="M654.065,754.839c0-1.29.005-2.579-.005-3.869,0-.243.051-.336.317-.332.946.017,1.892,0,2.837.01a2.83,2.83,0,0,1,2.771,2.751q.019,1.467,0,2.933a2.8,2.8,0,0,1-2.71,2.7c-.966.013-1.934-.007-2.9.012-.276.005-.315-.1-.313-.339C654.069,757.418,654.065,756.128,654.065,754.839Z" transform="translate(-640.599 -734.057)" fill="#e9f1f8"/>
    <path id="Path_25335" data-name="Path 25335" d="M744.473,757.241a.323.323,0,0,1,.268.38c-.027.424-.007.851-.009,1.277,0,.112.034.246-.136.277a2.829,2.829,0,0,1-2.827-2.855v-2.675a2.837,2.837,0,0,1,2.96-2.853v1.914c-.059.095-.163.092-.258.119a.831.831,0,0,0-.677.831c-.025.9-.018,1.806,0,2.7a.878.878,0,0,0,.42.688C744.306,757.111,744.416,757.141,744.473,757.241Z" transform="translate(-720.767 -734.195)" fill="#e9f1f8"/>
    <path id="Path_25336" data-name="Path 25336" d="M765.039,777.615a.932.932,0,0,1-.769-.96v-2.469c0-.728.3-1.049,1.032-1.106v.027a.537.537,0,0,1,.1.422q.005,1.825,0,3.649a.566.566,0,0,1-.1.424Z" transform="translate(-741.333 -754.569)" fill="#69ccfe"/>
    <path id="Path_25337" data-name="Path 25337" d="M776.26,777.876v-4.495a.873.873,0,0,1,1,.946,15.58,15.58,0,0,1-.024,2.724A.835.835,0,0,1,776.26,777.876Z" transform="translate(-752.292 -754.843)" fill="#52baee"/>
    <path id="Path_25338" data-name="Path 25338" d="M676.554,775.436c0-.666.006-1.332,0-2,0-.2.061-.267.258-.258.3.014.6,0,.9.006a.9.9,0,0,1,.9.906q.011,1.354,0,2.707a.868.868,0,0,1-.914.907c-.29.006-.58-.009-.87.006-.215.011-.277-.07-.273-.279C676.56,776.768,676.554,776.1,676.554,775.436Z" transform="translate(-661.154 -754.661)" fill="#69ccfe"/>
  </g>
</svg>
