<svg xmlns="http://www.w3.org/2000/svg" width="13" height="12.998" viewBox="0 0 13 12.998">
  <g id="edit" transform="translate(0 -0.041)">
    <path id="Path_24951" data-name="Path 24951" d="M651.863,561.718c-.027.11-.049.221-.082.329a1.87,1.87,0,0,1-.487.775l-6.005,6a.857.857,0,0,1-.315.2c-.879.3-1.761.59-2.642.886a.5.5,0,0,1-.495-.051.473.473,0,0,1-.142-.571c.238-.713.5-1.42.706-2.141a2.754,2.754,0,0,1,.759-1.224c1.881-1.857,3.746-3.732,5.612-5.6a1.808,1.808,0,0,1,1.4-.575,1.776,1.776,0,0,1,1.672,1.5.439.439,0,0,0,.023.07Z" transform="translate(-638.863 -559.7)" fill="#004475"/>
    <path id="Path_24952" data-name="Path 24952" d="M560.852,598.962a2.908,2.908,0,0,1-.384-.121,1.349,1.349,0,0,1-.832-1.26c-.013-.465,0-.931,0-1.4v-7.857a1.385,1.385,0,0,1,1.14-1.412,1.664,1.664,0,0,1,.315-.024q2.716,0,5.432,0a.468.468,0,0,1,.533.423.457.457,0,0,1-.428.5c-.051,0-.1,0-.152,0h-5.381a.471.471,0,0,0-.509.333,1,1,0,0,0-.021.252v9.05a1.528,1.528,0,0,0,.008.19.45.45,0,0,0,.386.381,1.485,1.485,0,0,0,.177.008h8.135a1.566,1.566,0,0,0,.177-.008.451.451,0,0,0,.392-.4c.005-.059,0-.118,0-.177v-4.417a.858.858,0,0,1,.034-.262.458.458,0,0,1,.874.045.92.92,0,0,1,.021.214q0,2.234,0,4.468a1.391,1.391,0,0,1-1.183,1.454.127.127,0,0,0-.034.018Z" transform="translate(-559.63 -585.925)" fill="#004475"/>
  </g>
</svg>
