<svg xmlns="http://www.w3.org/2000/svg" width="10.42" height="12.73" viewBox="0 0 10.42 12.73">
  <g id="employment_type" transform="translate(-2.352 0)">
    <g id="Group_42259" data-name="Group 42259" transform="translate(2.352 0)">
      <path id="Path_24098" data-name="Path 24098" d="M7.858,3.994a.848.848,0,0,0,.191.417A2.721,2.721,0,0,0,10.357,6.79c1.2-.059,2.052-1.353,2.243-2.379a1.046,1.046,0,0,0,.2-.461,1.073,1.073,0,0,0-.035-.778c-.008-.01-.062-.059-.072-.068A2.011,2.011,0,0,0,12.387.966a3.439,3.439,0,0,0-1.459-.8A2.255,2.255,0,0,0,7.914,1.517,2.361,2.361,0,0,0,7.927,3.1a.28.28,0,0,0-.071.068C7.714,3.36,7.806,3.758,7.858,3.994Z" transform="translate(-5.114 0)" fill="#004475"/>
      <path id="Path_24099" data-name="Path 24099" d="M12.768,17.882a6.658,6.658,0,0,0-.88-3.5,1.745,1.745,0,0,0-.757-.509,7.7,7.7,0,0,1-1.689-.733l-.243.167.027,1.581-1.46,3.9a.218.218,0,0,1-.409,0L5.9,14.888s.027-1.576.027-1.581c0,.013-.244-.167-.244-.167a7.681,7.681,0,0,1-1.688.733,1.745,1.745,0,0,0-.757.509,6.663,6.663,0,0,0-.88,3.5c-.028.623.1.855.266.922,2.037.817,7.842.817,9.879,0C12.667,18.737,12.8,18.5,12.768,17.882Z" transform="translate(-2.352 -6.686)" fill="#004475"/>
      <path id="Path_24100" data-name="Path 24100" d="M12.337,14.73h-.066a1.952,1.952,0,0,1-.637-.114l.579.886-.519.5.534,3.245a.057.057,0,0,0,.057.048.058.058,0,0,0,.057-.048L12.877,16l-.52-.5.57-.872A2.445,2.445,0,0,1,12.337,14.73Z" transform="translate(-7.075 -7.437)" fill="#004475"/>
    </g>
  </g>
</svg>
