<svg xmlns="http://www.w3.org/2000/svg" width="15.276" height="12.73" viewBox="0 0 15.276 12.73">
  <g id="Experience_icon" transform="translate(0 -2)">
    <path id="Path_24101" data-name="Path 24101" d="M12.456,4.864a.637.637,0,0,1-.637-.637V3.273H9.273v.955A.637.637,0,0,1,8,4.228V3.273A1.274,1.274,0,0,1,9.273,2h2.546a1.274,1.274,0,0,1,1.273,1.273v.955A.637.637,0,0,1,12.456,4.864Z" transform="translate(-2.908)" fill="#004475"/>
    <path id="Path_24102" data-name="Path 24102" d="M8.09,14.013a1.311,1.311,0,0,1-.452.076A1.4,1.4,0,0,1,7.148,14L0,11.62v4.857a1.749,1.749,0,0,0,1.75,1.75H13.526a1.749,1.749,0,0,0,1.75-1.75V11.62Z" transform="translate(0 -3.497)" fill="#004475"/>
    <path id="Path_24103" data-name="Path 24103" d="M15.276,6.75V8.208L7.791,10.7a.471.471,0,0,1-.306,0L0,8.208V6.75A1.749,1.749,0,0,1,1.75,5H13.526A1.749,1.749,0,0,1,15.276,6.75Z" transform="translate(0 -1.09)" fill="#004475"/>
  </g>
</svg>
