<svg id="information" xmlns="http://www.w3.org/2000/svg" width="11.772" height="11.772" viewBox="0 0 11.772 11.772">
  <g id="Group_42510" data-name="Group 42510">
    <g id="Group_42509" data-name="Group 42509">
      <path id="Path_24957" data-name="Path 24957" d="M5.886,0a5.886,5.886,0,1,0,5.886,5.886A5.883,5.883,0,0,0,5.886,0Zm0,10.853a4.967,4.967,0,1,1,4.967-4.967A4.964,4.964,0,0,1,5.886,10.853Z" fill="#999"/>
    </g>
  </g>
  <g id="Group_42512" data-name="Group 42512" transform="translate(5.426 4.928)">
    <g id="Group_42511" data-name="Group 42511">
      <path id="Path_24958" data-name="Path 24958" d="M236.46,214.33a.46.46,0,0,0-.46.46v2.961a.46.46,0,1,0,.92,0V214.79A.46.46,0,0,0,236.46,214.33Z" transform="translate(-236 -214.33)" fill="#999"/>
    </g>
  </g>
  <g id="Group_42514" data-name="Group 42514" transform="translate(5.265 3.123)">
    <g id="Group_42513" data-name="Group 42513">
      <circle id="Ellipse_2102" data-name="Ellipse 2102" cx="0.621" cy="0.621" r="0.621" fill="#999"/>
    </g>
  </g>
</svg>
