<svg xmlns="http://www.w3.org/2000/svg" width="9.426" height="12.569" viewBox="0 0 9.426 12.569">
  <path id="job_description" d="M8.248,1.571H6.284a1.571,1.571,0,0,0-3.142,0H1.178A1.179,1.179,0,0,0,0,2.749V11.39a1.179,1.179,0,0,0,1.178,1.178h7.07A1.179,1.179,0,0,0,9.426,11.39V2.749A1.179,1.179,0,0,0,8.248,1.571ZM2.357,10.408a.589.589,0,1,1,.589-.589A.588.588,0,0,1,2.357,10.408Zm0-2.357a.589.589,0,1,1,.589-.589A.588.588,0,0,1,2.357,8.052Zm0-2.357a.589.589,0,1,1,.589-.589A.588.588,0,0,1,2.357,5.7ZM4.713.982a.589.589,0,1,1-.589.589A.588.588,0,0,1,4.713.982Zm3.142,9.034a.2.2,0,0,1-.2.2H4.124a.2.2,0,0,1-.2-.2V9.623a.2.2,0,0,1,.2-.2H7.659a.2.2,0,0,1,.2.2Zm0-2.357a.2.2,0,0,1-.2.2H4.124a.2.2,0,0,1-.2-.2V7.266a.2.2,0,0,1,.2-.2H7.659a.2.2,0,0,1,.2.2Zm0-2.357a.2.2,0,0,1-.2.2H4.124a.2.2,0,0,1-.2-.2V4.91a.2.2,0,0,1,.2-.2H7.659a.2.2,0,0,1,.2.2Z" fill="#004475"/>
</svg>
