<svg xmlns="http://www.w3.org/2000/svg" width="12.768" height="12.768" viewBox="0 0 12.768 12.768">
  <path id="linkedin_1_" data-name="linkedin (1)" d="M505.995,506.768H494.773a.968.968,0,0,1-.6-.395,3.292,3.292,0,0,1-.17-.378V494.773a.912.912,0,0,1,.3-.524,3.812,3.812,0,0,1,.474-.249h11.221a.96.96,0,0,1,.6.395,3.078,3.078,0,0,1,.17.378v11.221a.968.968,0,0,1-.395.6A3.3,3.3,0,0,1,505.995,506.768Zm-5.053-7.78H499.4v4.654h1.545v-1.193c0-.524,0-1.047.012-1.571a.8.8,0,0,1,.4-.666.747.747,0,0,1,1.153.431,2.116,2.116,0,0,1,.065.541c.007.777,0,1.554,0,2.331v.125h1.549c0-.034.005-.059.005-.084,0-.873.01-1.746-.006-2.618a3.442,3.442,0,0,0-.129-.882,1.533,1.533,0,0,0-1.294-1.163,1.589,1.589,0,0,0-1.705.66.44.44,0,0,1-.057.051Zm-2.419,4.659c0-.033.007-.057.007-.081q0-2.244,0-4.489c0-.094-.038-.108-.118-.108-.441,0-.881,0-1.322,0-.036,0-.073,0-.112.008v4.668Zm-.757-6.928a.838.838,0,0,0-.844.551.8.8,0,0,0,.646,1.047.876.876,0,0,0,1.014-.5A.812.812,0,0,0,497.765,496.718Z" transform="translate(-494 -494)" fill="#004475"/>
</svg>
