<svg xmlns="http://www.w3.org/2000/svg" width="9.774" height="14.244" viewBox="0 0 9.774 14.244">
  <g id="nationality" transform="translate(-80.333)">
    <g id="Group_290" data-name="Group 290" transform="translate(80.333)">
      <path id="Path_747" data-name="Path 747" d="M89.9.576A3.978,3.978,0,0,0,87.8,0a9.53,9.53,0,0,0-2.7.534,8.786,8.786,0,0,1-2.461.5h0A3.17,3.17,0,0,1,81.168.688V.417a.417.417,0,1,0-.835,0v13.41a.417.417,0,1,0,.835,0V7.274a4.032,4.032,0,0,0,1.472.266,9.529,9.529,0,0,0,2.7-.534,8.784,8.784,0,0,1,2.461-.5,3.165,3.165,0,0,1,1.674.457.417.417,0,0,0,.632-.358V.933A.417.417,0,0,0,89.9.576ZM85.1,6.206a8.784,8.784,0,0,1-2.461.5c-.534,0-.829-.649-1.472-.1l1.472.358c.461.178,2.463-.6,2.987-.6l2.24-1.429c.921,0,.426-2.3,1.3-2.565.855-.256-.588,0,.211,0l-.144-1.2-.067.6.211,2.858c.211-1.054.15-2.53-.375-2.53C88.081,2.085,85.975,5.944,85.1,6.206Z" transform="translate(-80.333)" fill="#004475"/>
    </g>
  </g>
</svg>
