<svg xmlns="http://www.w3.org/2000/svg" width="17.027" height="19.431" viewBox="0 0 17.027 19.431">
  <g id="Notifications" transform="translate(-1704.3 -25.2)">
    <path id="notification_bell" data-name="notification bell" d="M739.49,747.434h-.53l-.124-.031a8.332,8.332,0,0,1-1.113-.34,3.449,3.449,0,0,1-1.55-1.453.371.371,0,0,0-.221-.172c-1.179-.2-2.363-.389-3.533-.583l-1.325-.234a.393.393,0,0,1-.345-.252.375.375,0,0,1,.133-.406l.132-.137a7.733,7.733,0,0,0,2.177-5.357V735.2a5.251,5.251,0,0,1,3.842-5.039c.34-.11.34-.1.367-.442a1.767,1.767,0,1,1,3.533.11.225.225,0,0,0,.208.261,5.224,5.224,0,0,1,4.041,5.105v3.334a7.481,7.481,0,0,0,.662,2.95,8.6,8.6,0,0,0,1.767,2.513.371.371,0,0,1,.132.406.384.384,0,0,1-.344.256c-1.6.269-3.2.539-4.8.795a.4.4,0,0,0-.322.212,3.467,3.467,0,0,1-1.952,1.616,8.335,8.335,0,0,1-.839.159Zm-.384-15.868a5.25,5.25,0,0,0-.715.075,4.143,4.143,0,0,0-2.809,1.581,2.99,2.99,0,0,0-.64,1.842.345.345,0,1,0,.689.044v-.186a2.438,2.438,0,0,1,.671-1.488,3.657,3.657,0,0,1,2.575-1.148,4.752,4.752,0,0,1,2.208.38.353.353,0,0,0,.49-.181.367.367,0,0,0-.238-.473A5.679,5.679,0,0,0,739.106,731.566Zm-2.111,14a2.738,2.738,0,0,0,4.465,0A21.868,21.868,0,0,1,736.995,745.562Zm3.215-15.723a1.034,1.034,0,0,0-1.148-1.086,1.02,1.02,0,0,0-.936,1.086Z" transform="translate(973.566 -702.803)" fill="#fff"/>
  </g>
</svg>
