<svg xmlns="http://www.w3.org/2000/svg" width="29.17" height="33.099" viewBox="0 0 29.17 33.099">
  <g id="PDF_icon" transform="translate(-30.391)">
    <g id="Group_182" data-name="Group 182" transform="translate(30.391 0)">
      <path id="Path_158" data-name="Path 158" d="M79.016,30.144A2.958,2.958,0,0,1,76.055,33.1H55.7a2.958,2.958,0,0,1-2.961-2.955V2.955A2.958,2.958,0,0,1,55.7,0H68.37a2.223,2.223,0,0,1,1.572.651l8.425,8.426a2.214,2.214,0,0,1,.649,1.566Z" transform="translate(-51.291 0)" fill="#f9f8f9"/>
      <path id="Path_159" data-name="Path 159" d="M57.694,33.1h-2a2.959,2.959,0,0,1-2.961-2.956V2.956A2.959,2.959,0,0,1,55.7,0h2a2.959,2.959,0,0,0-2.961,2.956V30.143A2.959,2.959,0,0,0,57.694,33.1Z" transform="translate(-51.291 0)" fill="#e3e0e4"/>
      <path id="Path_160" data-name="Path 160" d="M289.655,10.642v1.082h-7.723a4,4,0,0,1-4-4V0h1.077a2.224,2.224,0,0,1,1.572.651l8.425,8.426A2.214,2.214,0,0,1,289.655,10.642Z" transform="translate(-261.929 0)" fill="#e3e0e4"/>
      <path id="Path_161" data-name="Path 161" d="M318.364,12.626H310.84a2,2,0,0,1-2-2V3.1a2.2,2.2,0,0,1,.651.45l8.425,8.426a2.2,2.2,0,0,1,.45.649Z" transform="translate(-290.837 -2.901)" fill="#dc4955"/>
      <path id="Path_162" data-name="Path 162" d="M56.9,226.238H33.055a2.664,2.664,0,0,1-2.664-2.664v-9.723a2.664,2.664,0,0,1,2.664-2.664H56.9a2.664,2.664,0,0,1,2.664,2.664v9.723A2.664,2.664,0,0,1,56.9,226.238Z" transform="translate(-30.391 -197.534)" fill="#dc4955"/>
      <path id="Path_163" data-name="Path 163" d="M34.72,226.238H33.055a2.664,2.664,0,0,1-2.664-2.664v-9.723a2.664,2.664,0,0,1,2.664-2.664H34.72a2.664,2.664,0,0,0-2.664,2.664v9.723A2.664,2.664,0,0,0,34.72,226.238Z" transform="translate(-30.391 -197.534)" fill="#c42430"/>
      <g id="Group_181" data-name="Group 181" transform="translate(12.176 16.911)">
        <path id="Path_164" data-name="Path 164" d="M336.653,262.584a.5.5,0,0,0,0-1H333.6a.5.5,0,0,0-.5.5v7.536a.5.5,0,0,0,1,0v-3.34h2.312a.5.5,0,1,0,0-1H334.1v-2.7Z" transform="translate(-325.706 -261.585)" fill="#f9f8f9"/>
        <path id="Path_165" data-name="Path 165" d="M221.331,262.891h-2.087a.5.5,0,0,0-.5.5v.006h0v7.24a.5.5,0,0,0,.015.119v0a.5.5,0,0,0,.5.5h0c.063,0,1.548-.006,2.14-.016a3.186,3.186,0,0,0,2.515-1.28,4.755,4.755,0,0,0,.89-2.887C224.806,264.572,223.409,262.891,221.331,262.891Zm.052,7.351c-.372.006-1.124.011-1.626.014,0-.824-.008-2.449-.008-3.19,0-.62,0-2.323,0-3.176h1.586c1.825,0,2.476,1.645,2.476,3.184C223.807,268.914,222.81,270.217,221.383,270.242Z" transform="translate(-218.745 -262.807)" fill="#f9f8f9"/>
      </g>
    </g>
    <path id="Path_166" data-name="Path 166" d="M108.857,261.444h-2.131c-.436,0-.459.19-.459.459v7.654a.459.459,0,0,0,.918,0v-2.868c.5,0,1.287-.007,1.672-.007a2.619,2.619,0,1,0,0-5.238Zm0,4.32c-.382,0-1.161,0-1.66.007,0-.512-.007-1.318-.007-1.708,0-.327,0-1.17,0-1.7h1.671a1.7,1.7,0,1,1,0,3.4Z" transform="translate(-70.971 -244.542)" fill="#f9f8f9"/>
  </g>
</svg>
