<svg id="Post_job" data-name="Post job" xmlns="http://www.w3.org/2000/svg" width="14.542" height="14.544" viewBox="0 0 14.542 14.544">
  <path id="Path_24953" data-name="Path 24953" d="M558,569.276v-9.828c.009-.031.022-.061.028-.092a1.561,1.561,0,0,1,.709-1.064,4.637,4.637,0,0,1,.711-.292h7.413a.347.347,0,0,0,.063.026,1.657,1.657,0,0,1,1.376,1.641c.008,1.121,0,2.243,0,3.365,0,.1-.033.121-.128.135-.417.061-.829.128-1.242.206a3.521,3.521,0,0,0-.439.143.665.665,0,0,0-.757-.671c-1.728.011-3.455,0-5.183.005-.066,0-.133,0-.2,0a.6.6,0,0,0-.524.734.609.609,0,0,0,.655.469h4.948a6.229,6.229,0,0,0-1.45,1.536.593.593,0,0,0-.512-.319q-1.54-.007-3.081,0a.6.6,0,0,0-.576.618.615.615,0,0,0,.664.593q1.427,0,2.854,0h.194a5.345,5.345,0,0,0-.373,2.138,5.406,5.406,0,0,0,.5,2.094c-.033,0-.048.006-.062.006-1.326,0-2.651.007-3.977,0a1.6,1.6,0,0,1-1.262-.636A1.936,1.936,0,0,1,558,569.276Zm3.632-7.64H562.8a.608.608,0,1,0,.006-1.213q-1.169,0-2.34,0a.608.608,0,1,0,.008,1.213Z" transform="translate(-558 -558)" fill="#fff"/>
  <path id="Path_24954" data-name="Path 24954" d="M729.864,734.071c-.281-.058-.568-.1-.843-.178a4.088,4.088,0,1,1,5.221-4.556c.017.111.035.222.053.333v.625c-.008.041-.02.081-.025.122a4.081,4.081,0,0,1-3.03,3.519c-.236.062-.481.092-.719.137Zm-.283-3.487a.257.257,0,0,1,.017.05c0,.331,0,.662,0,.993a.6.6,0,1,0,1.205,0c0-.293,0-.587,0-.88,0-.05,0-.1.008-.161.356,0,.7,0,1.035,0a.6.6,0,1,0,0-1.205c-.293,0-.586,0-.88,0-.05,0-.1,0-.143-.007a.2.2,0,0,1-.014-.043c0-.331,0-.662,0-.993a.6.6,0,1,0-1.205,0c0,.293,0,.587,0,.88,0,.05,0,.1-.008.16h-.17c-.307,0-.615-.007-.923,0a.595.595,0,0,0-.544.761.587.587,0,0,0,.576.44C728.882,730.587,729.231,730.584,729.581,730.584Z" transform="translate(-719.753 -719.529)" fill="#fff"/>
</svg>
