<svg xmlns="http://www.w3.org/2000/svg" width="11.165" height="12.761" viewBox="0 0 11.165 12.761">
  <path id="remote_option" d="M10.522,2.735,6.385.221a1.538,1.538,0,0,0-1.606,0L.643,2.735a.213.213,0,0,0,0,.36L5.583,6.04,10.521,3.1a.213.213,0,0,0,0-.36Zm.345,1.112L5.981,6.761v5.578a.4.4,0,0,0,.6.36l3.792-2.3a1.679,1.679,0,0,0,.792-1.438V4.028a.2.2,0,0,0-.3-.181ZM0,4.028V8.956a1.679,1.679,0,0,0,.792,1.438l3.792,2.3a.4.4,0,0,0,.6-.36V6.761L.3,3.848A.2.2,0,0,0,0,4.028Z" transform="translate(0 0.005)" fill="#004475"/>
</svg>
