<svg xmlns="http://www.w3.org/2000/svg" width="13.293" height="12.761" viewBox="0 0 13.293 12.761">
  <g id="salary" transform="translate(0 -17.84)">
    <g id="Group_42258" data-name="Group 42258" transform="translate(0 17.84)">
      <path id="Path_24094" data-name="Path 24094" d="M160.225,20.269l5.3-1.447-.281-.567a.747.747,0,0,0-1-.337L159.5,20.269Z" transform="translate(-157.119 -17.84)" fill="#004475"/>
      <path id="Path_24095" data-name="Path 24095" d="M327.244,86.46a.746.746,0,0,0-.2.027l-1.245.34L322,87.865h6.2l-.233-.854A.745.745,0,0,0,327.244,86.46Z" transform="translate(-317.193 -85.436)" fill="#004475"/>
      <path id="Path_24096" data-name="Path 24096" d="M11.781,215.56H.748a.747.747,0,0,0-.721.551.773.773,0,0,0-.027.2v8.316a.747.747,0,0,0,.746.746H11.78a.747.747,0,0,0,.746-.746V222.54H8.1a1.27,1.27,0,0,1-1.269-1.269v-1.66A1.267,1.267,0,0,1,8.1,218.344h4.431v-2.038A.744.744,0,0,0,11.781,215.56Z" transform="translate(0 -212.608)" fill="#004475"/>
      <path id="Path_24097" data-name="Path 24097" d="M498.1,436.957a.746.746,0,0,0-.261-.155.761.761,0,0,0-.242-.04h-4.45a.747.747,0,0,0-.746.746v1.661a.747.747,0,0,0,.746.746h4.45a.76.76,0,0,0,.242-.04.724.724,0,0,0,.261-.155.744.744,0,0,0,.243-.551v-1.661A.744.744,0,0,0,498.1,436.957Zm-3.395,1.53a.373.373,0,0,1-.373.373h-.248a.373.373,0,0,1-.373-.373v-.248a.366.366,0,0,1,.143-.293.377.377,0,0,1,.23-.081h.248a.373.373,0,0,1,.373.373v.248Z" transform="translate(-485.05 -430.507)" fill="#004475"/>
    </g>
  </g>
</svg>
