<svg xmlns="http://www.w3.org/2000/svg" xmlns:xlink="http://www.w3.org/1999/xlink" width="60" height="60" viewBox="0 0 60 60">
  <defs>
    <filter id="Ellipse_2073" x="0" y="0" width="60" height="60" filterUnits="userSpaceOnUse">
      <feOffset dy="3" input="SourceAlpha"/>
      <feGaussianBlur stdDeviation="3" result="blur"/>
      <feFlood flood-opacity="0.161"/>
      <feComposite operator="in" in2="blur"/>
      <feComposite in="SourceGraphic"/>
    </filter>
  </defs>
  <g id="Search" transform="translate(-1203 -676.508)">
    <g transform="matrix(1, 0, 0, 1, 1203, 676.51)" filter="url(#Ellipse_2073)">
      <circle id="Ellipse_2073-2" data-name="Ellipse 2073" cx="21" cy="21" r="21" transform="translate(9 6)" fill="#fff"/>
    </g>
    <path id="search_1_" data-name="search (1)" d="M19.168,17.42l-4.552-4.734a7.719,7.719,0,1,0-5.91,2.758,7.639,7.639,0,0,0,4.424-1.4l4.586,4.77a1.007,1.007,0,1,0,1.452-1.4ZM8.706,2.014A5.708,5.708,0,1,1,3,7.722,5.714,5.714,0,0,1,8.706,2.014Z" transform="translate(1223.018 693.508)" fill="#184b96"/>
  </g>
</svg>
