<svg xmlns="http://www.w3.org/2000/svg" width="16.575" height="14.72" viewBox="0 0 16.575 14.72">
  <path id="share_post" d="M638.513,501.1a5.96,5.96,0,0,1-.4.518q-2.838,2.959-5.682,5.912a.756.756,0,0,1-.723.289.7.7,0,0,1-.558-.765c0-.877,0-1.755,0-2.633V504.2c-.027-.02-.038-.035-.049-.035a7.927,7.927,0,0,0-6.21,2.011,7.7,7.7,0,0,0-1.6,2.125.693.693,0,0,1-.949.369.622.622,0,0,1-.386-.556,11.7,11.7,0,0,1,.383-4.036,8.846,8.846,0,0,1,6.974-6.211,14.566,14.566,0,0,1,1.606-.163c.07-.007.14-.008.233-.013v-.243c0-.834.013-1.668-.005-2.5a.872.872,0,0,1,.512-.922H632a3.974,3.974,0,0,1,.489.373q2.814,2.913,5.62,5.84a6.2,6.2,0,0,1,.4.518Z" transform="translate(-621.939 -494.02)" fill="#0a2d50"/>
</svg>
