<svg xmlns="http://www.w3.org/2000/svg" width="14.048" height="12.487" viewBox="0 0 14.048 12.487">
  <path id="skills" d="M12.489,7.8s-1.561,2.26-1.561,3.122a1.561,1.561,0,0,0,3.122,0C14.05,10.064,12.489,7.8,12.489,7.8Zm-.229-2.511L7.2.229a.78.78,0,0,0-1.1,0L4.1,2.218,2,.116a.39.39,0,0,0-.552,0L.9.668a.39.39,0,0,0,0,.552L3,3.321.688,5.632a2.341,2.341,0,0,0,0,3.311L3.546,11.8a2.34,2.34,0,0,0,3.311,0l5.4-5.4A.78.78,0,0,0,12.261,5.294ZM9.426,7.025H1.61a.757.757,0,0,1,.181-.289l.321-.321L4.1,4.425,5.532,5.854a.78.78,0,0,0,1.1-1.1L5.206,3.322,6.644,1.884l3.962,3.962L9.426,7.025Z" transform="translate(-0.003)" fill="#004475"/>
</svg>
