<svg xmlns="http://www.w3.org/2000/svg" width="108" height="80" viewBox="0 0 108 80">
  <g id="successful_icon" transform="translate(-952.75 -392)">
    <g id="Verified" transform="translate(712.75 -137)">
      <circle id="Ellipse_2038" data-name="Ellipse 2038" cx="32.5" cy="32.5" r="32.5" transform="translate(260 534)" fill="#00992e"/>
      <g id="tick_1_" data-name="tick (1)" transform="translate(277.958 555.262)">
        <g id="Group_42222" data-name="Group 42222">
          <path id="Path_24387" data-name="Path 24387" d="M29.313,68.433a1.487,1.487,0,0,0-2.1,0L9.389,86.254,2.539,79.4a1.487,1.487,0,0,0-2.1,2.1l7.9,7.9a1.488,1.488,0,0,0,2.1,0L29.313,70.537A1.487,1.487,0,0,0,29.313,68.433Z" transform="translate(0 -67.998)" fill="#fff"/>
        </g>
      </g>
    </g>
    <circle id="Ellipse_2039" data-name="Ellipse 2039" cx="10" cy="10" r="10" transform="translate(952.75 392)" fill="#00992e"/>
    <circle id="Ellipse_2040" data-name="Ellipse 2040" cx="5" cy="5" r="5" transform="translate(972.75 462)" fill="#00992e"/>
    <circle id="Ellipse_2041" data-name="Ellipse 2041" cx="7.5" cy="7.5" r="7.5" transform="translate(1045.75 412)" fill="#00992e"/>
  </g>
</svg>
