<svg id="twitter" xmlns="http://www.w3.org/2000/svg" width="15.714" height="12.768" viewBox="0 0 15.714 12.768">
  <g id="Group_85" data-name="Group 85" transform="translate(0 0)">
    <path id="Path_108" data-name="Path 108" d="M15.714,49.511a6.716,6.716,0,0,1-1.856.509,3.2,3.2,0,0,0,1.417-1.781,6.438,6.438,0,0,1-2.043.78,3.221,3.221,0,0,0-5.573,2.2,3.317,3.317,0,0,0,.075.735,9.118,9.118,0,0,1-6.64-3.37,3.222,3.222,0,0,0,.99,4.306,3.181,3.181,0,0,1-1.455-.4v.035A3.236,3.236,0,0,0,3.21,55.7a3.215,3.215,0,0,1-.845.106,2.848,2.848,0,0,1-.61-.055,3.252,3.252,0,0,0,3.01,2.244A6.473,6.473,0,0,1,.771,59.366,6.033,6.033,0,0,1,0,59.322a9.069,9.069,0,0,0,4.942,1.446A9.106,9.106,0,0,0,14.111,51.6c0-.142,0-.28-.012-.416A6.427,6.427,0,0,0,15.714,49.511Z" transform="translate(0 -48)" fill="#004475"/>
  </g>
</svg>
