<svg xmlns="http://www.w3.org/2000/svg" width="11.162" height="12.704" viewBox="0 0 11.162 12.704">
  <g id="_Vacancies_" data-name=" Vacancies " transform="translate(-0.04)">
    <path id="Path_24937" data-name="Path 24937" d="M675.076,558a2.818,2.818,0,0,1,.319.092,1.282,1.282,0,0,1,.87,1.212c.02,1.2.008,2.4.009,3.6v.415H671.05v-3.862a1.356,1.356,0,0,1,1.164-1.437.148.148,0,0,0,.033-.016Z" transform="translate(-668.042 -558)" fill="#1f7800"/>
    <path id="Path_24938" data-name="Path 24938" d="M648.555,824.586l-.092-.033a.746.746,0,0,1,.224-1.46h.109a2.664,2.664,0,0,1,2.138-1.849v-.674h.743v.674a2.663,2.663,0,0,1,2.142,1.845,1.906,1.906,0,0,1,.251.021.741.741,0,0,1,.588.68.749.749,0,0,1-.529.765c-.031.01-.062.021-.093.033h-.248a.5.5,0,0,0-.057-.023.77.77,0,0,1-.57-.761,2.012,2.012,0,0,0-.123-.65,1.837,1.837,0,0,0-1.359-1.149c0,.364,0,.716,0,1.067a.222.222,0,0,0,.09.2.7.7,0,0,1,.257.72.717.717,0,0,1-.48.555l-.113.045h-.273c-.038-.015-.075-.031-.113-.044a.729.729,0,0,1-.285-1.209.533.533,0,0,0,.176-.468c-.006-.152,0-.306,0-.458v-.4c-.075.02-.136.033-.194.052a1.859,1.859,0,0,0-1.3,1.711.771.771,0,0,1-.236.593,2.441,2.441,0,0,1-.4.226Z" transform="translate(-645.689 -811.886)" fill="#1f7800"/>
    <path id="Path_24939" data-name="Path 24939" d="M591.459,678.063c0,.277.006.533,0,.788a1.356,1.356,0,0,1-1.125,1.308c-.1.018-.2.02-.321.03l-.008.132a.992.992,0,0,1-1.028.986c-.447,0-.893,0-1.339,0h-2.815a1,1,0,0,1-1.022-.785,2.593,2.593,0,0,1-.033-.308,3.792,3.792,0,0,1-.578-.167,1.3,1.3,0,0,1-.79-1.191c-.011-.259,0-.519,0-.794h-.667a.376.376,0,0,1-.421-.37.38.38,0,0,1,.421-.373q.5,0,.992,0a.381.381,0,0,1,.415.418c0,.343,0,.686,0,1.029a.624.624,0,0,0,.686.673h6.212a.626.626,0,0,0,.681-.677v-.992a.391.391,0,0,1,.445-.451h.893a.379.379,0,0,1,.415.379.373.373,0,0,1-.415.364Z" transform="translate(-581.27 -673.374)" fill="#1f7800"/>
  </g>
</svg>
