<svg xmlns="http://www.w3.org/2000/svg" width="12.806" height="12.728" viewBox="0 0 12.806 12.728">
  <g id="website" transform="translate(0.07)">
    <path id="Path_24960" data-name="Path 24960" d="M736.966,746.014c.041-.3.071-.6.127-.9a6.008,6.008,0,0,1,.723-1.935.143.143,0,0,1,.092-.071c.112-.035.234-.056.387-.092l-.443.356a.967.967,0,0,0,.631.254,7.766,7.766,0,0,0,1.334-.173.2.2,0,0,1,.26.107c.163.3.351.58.509.871a.408.408,0,0,1,.056.188v.82a.325.325,0,0,0,.051.168c.265.361.509.718.789,1.079a.173.173,0,0,0,.219.076V746.4h.031a3.992,3.992,0,0,1,.2.423.443.443,0,0,0,.412.326,6.191,6.191,0,0,1,.677.153.384.384,0,0,1,.168.092c.239.234.443.509.85.509a5.89,5.89,0,0,1-.305.621.474.474,0,0,0,0,.575,4.952,4.952,0,0,1,.591,1.527.3.3,0,0,1,0,.132c-.051.219-.092.448-.163.662a2.226,2.226,0,0,0-.061,1.018v.2c-.27,0-.509.046-.8.046a6.39,6.39,0,0,1-6.257-5.092c-.056-.264-.076-.539-.112-.814v-.117Z" transform="translate(-737 -739.955)" fill="#004475"/>
    <path id="Path_24961" data-name="Path 24961" d="M745.2,737c.229.031.463.061.7.1a6.149,6.149,0,0,1,1.573.509v.041a1.635,1.635,0,0,1-.387,0,.733.733,0,0,0-.764.173l-.351.346a.311.311,0,0,1-.137.066c-.316.036-.636.076-.957.092a4,4,0,0,1-.509-.046.173.173,0,0,0-.127.056c-.087.117-.153.239-.234.356a.214.214,0,0,1-.138.081,7.109,7.109,0,0,1-.8.036,2.254,2.254,0,0,1-.509-.122.244.244,0,0,0-.229,0,1.8,1.8,0,0,1-.947.305,6.171,6.171,0,0,0-1.359.3l-.117.031-.025-.031c.239-.234.463-.479.713-.7a6.252,6.252,0,0,1,3.156-1.492c.214-.036.428-.056.642-.086Zm-.509.85a.509.509,0,0,0,.479.168,1.428,1.428,0,0,0,.377-.061q.3-.2.585-.438l-.377-.219a.117.117,0,0,0-.092,0Zm-1.96.183.366.214a.107.107,0,0,0,.066,0l.84-.219c-.056-.1-.112-.183-.158-.27s-.071-.086-.148-.056a.509.509,0,0,1-.509,0,.067.067,0,0,0-.066,0Z" transform="translate(-738.443 -737)" fill="#004475"/>
    <path id="Path_24962" data-name="Path 24962" d="M752.695,741.753c.092-.148.168-.26.239-.382a.2.2,0,0,1,.183-.117l.845-.071h.061c.193-.041.193-.041.3.127a6.379,6.379,0,0,1-3.849,9.546h-.066c.056-.219.081-.423.311-.55a9.255,9.255,0,0,0,.81-.535.371.371,0,0,0,.117-.148c.081-.2.143-.4.224-.6a.538.538,0,0,1,.127-.137h.031a2.366,2.366,0,0,0,.621-.311,2.242,2.242,0,0,0,.336-.606l.392-.748c-.173-.1-.331-.209-.509-.29a2.929,2.929,0,0,1-1.079-.9.326.326,0,0,0-.26-.138,2.8,2.8,0,0,1-.509-.1c-.3-.061-.6-.137-.9-.178a.931.931,0,0,0-.4.087.214.214,0,0,1-.29-.092.657.657,0,0,0-.509-.3l.025-.463a.474.474,0,0,0-.591.26l-.127-.509.448-.214a.172.172,0,0,1,.112,0l.362.163a.441.441,0,0,0,.107.036c.224.036.25,0,.3-.2a.662.662,0,0,1,.178-.357l.051-.056a3.014,3.014,0,0,1,1.583-1.207.291.291,0,0,1,.132,0,4.078,4.078,0,0,1,.509.061c.1-.209.092-.28-.056-.428s-.158-.173-.244-.249a2.215,2.215,0,0,1-.616-.86.143.143,0,0,0-.158-.107.988.988,0,0,1-.545-.117,2.3,2.3,0,0,0-.586-.122l-.122.672a3.417,3.417,0,0,1-.626-.127c-.132-.051-.066-.234-.092-.362a.4.4,0,0,1,.1-.081,1.865,1.865,0,0,1,.28-.066c.1,0,.137-.056.158-.153.041-.2.092-.4.143-.621.158.066.316.122.468.2a.411.411,0,0,1,.041.122c0,.209,0,.209.193.29a.366.366,0,0,1,.148.061.509.509,0,0,0,.621-.086c-.1-.117-.209-.244-.321-.367a4.787,4.787,0,0,0-.4-.387.356.356,0,0,1-.112-.417,2.067,2.067,0,0,1,.754.255,1.68,1.68,0,0,1,.565.947.509.509,0,0,0,.168.265c.193.163.372.336.56.509A3.293,3.293,0,0,0,752.695,741.753Z" transform="translate(-742.547 -738.286)" fill="#004475"/>
  </g>
</svg>
